<mxfile host="app.diagrams.net" modified="2022-11-23T16:36:56.197Z" agent="5.0 (Windows)" etag="qYg2u5KTgyF4nKCLAsvm" version="20.5.1" type="github">
  <diagram id="kgpKYQtTHZ0yAKxKKP6v" name="Page-1">
    <mxGraphModel dx="1094" dy="561" grid="1" gridSize="10" guides="1" tooltips="1" connect="1" arrows="1" fold="1" page="1" pageScale="1" pageWidth="1100" pageHeight="850" math="0" shadow="0">
      <root>
        <mxCell id="0" />
        <mxCell id="1" parent="0" />
        <mxCell id="CcFwGT3Hx2j7R2-zVpOx-8" value="" style="html=1;points=[];perimeter=orthogonalPerimeter;" parent="1" vertex="1">
          <mxGeometry x="90" y="160" width="10" height="280" as="geometry" />
        </mxCell>
        <mxCell id="CcFwGT3Hx2j7R2-zVpOx-9" value="Approver" style="shape=umlActor;verticalLabelPosition=bottom;verticalAlign=top;html=1;" parent="1" vertex="1">
          <mxGeometry x="80" y="60" width="30" height="60" as="geometry" />
        </mxCell>
        <mxCell id="CcFwGT3Hx2j7R2-zVpOx-10" value="Login Page" style="html=1;" parent="1" vertex="1">
          <mxGeometry x="170" y="65" width="110" height="50" as="geometry" />
        </mxCell>
        <mxCell id="CcFwGT3Hx2j7R2-zVpOx-11" value="" style="endArrow=none;dashed=1;html=1;rounded=0;entryX=0.5;entryY=1;entryDx=0;entryDy=0;" parent="1" target="CcFwGT3Hx2j7R2-zVpOx-10" edge="1">
          <mxGeometry width="50" height="50" relative="1" as="geometry">
            <mxPoint x="225" y="440" as="sourcePoint" />
            <mxPoint x="240" y="210" as="targetPoint" />
          </mxGeometry>
        </mxCell>
        <mxCell id="CcFwGT3Hx2j7R2-zVpOx-12" value="" style="html=1;points=[];perimeter=orthogonalPerimeter;" parent="1" vertex="1">
          <mxGeometry x="220" y="190" width="10" height="50" as="geometry" />
        </mxCell>
        <mxCell id="CcFwGT3Hx2j7R2-zVpOx-13" value="1: Input Username" style="html=1;verticalAlign=bottom;endArrow=block;rounded=0;exitX=1;exitY=0.107;exitDx=0;exitDy=0;exitPerimeter=0;" parent="1" source="CcFwGT3Hx2j7R2-zVpOx-8" edge="1">
          <mxGeometry width="80" relative="1" as="geometry">
            <mxPoint x="140" y="190" as="sourcePoint" />
            <mxPoint x="220" y="190" as="targetPoint" />
          </mxGeometry>
        </mxCell>
        <mxCell id="CcFwGT3Hx2j7R2-zVpOx-14" value="2 : Input Password" style="html=1;verticalAlign=bottom;endArrow=block;rounded=0;" parent="1" edge="1">
          <mxGeometry width="80" relative="1" as="geometry">
            <mxPoint x="100" y="230" as="sourcePoint" />
            <mxPoint x="220" y="230" as="targetPoint" />
          </mxGeometry>
        </mxCell>
        <mxCell id="CcFwGT3Hx2j7R2-zVpOx-15" value="Reimbursement&lt;br&gt;Main Page" style="html=1;" parent="1" vertex="1">
          <mxGeometry x="340" y="65" width="110" height="50" as="geometry" />
        </mxCell>
        <mxCell id="CcFwGT3Hx2j7R2-zVpOx-16" value="" style="endArrow=none;dashed=1;html=1;rounded=0;entryX=0.5;entryY=1;entryDx=0;entryDy=0;startArrow=none;" parent="1" source="CcFwGT3Hx2j7R2-zVpOx-18" edge="1">
          <mxGeometry width="50" height="50" relative="1" as="geometry">
            <mxPoint x="394.5" y="440" as="sourcePoint" />
            <mxPoint x="394.5" y="115" as="targetPoint" />
          </mxGeometry>
        </mxCell>
        <mxCell id="CcFwGT3Hx2j7R2-zVpOx-17" value="1.1 : Login" style="html=1;verticalAlign=bottom;endArrow=block;rounded=0;entryX=0;entryY=0.125;entryDx=0;entryDy=0;entryPerimeter=0;" parent="1" target="CcFwGT3Hx2j7R2-zVpOx-18" edge="1">
          <mxGeometry width="80" relative="1" as="geometry">
            <mxPoint x="230" y="200" as="sourcePoint" />
            <mxPoint x="310" y="200" as="targetPoint" />
          </mxGeometry>
        </mxCell>
        <mxCell id="CcFwGT3Hx2j7R2-zVpOx-18" value="" style="html=1;points=[];perimeter=orthogonalPerimeter;" parent="1" vertex="1">
          <mxGeometry x="390" y="190" width="10" height="80" as="geometry" />
        </mxCell>
        <mxCell id="CcFwGT3Hx2j7R2-zVpOx-19" value="" style="endArrow=none;dashed=1;html=1;rounded=0;entryX=0.5;entryY=1;entryDx=0;entryDy=0;startArrow=none;" parent="1" target="CcFwGT3Hx2j7R2-zVpOx-18" edge="1">
          <mxGeometry width="50" height="50" relative="1" as="geometry">
            <mxPoint x="395" y="320" as="sourcePoint" />
            <mxPoint x="394.5" y="115" as="targetPoint" />
          </mxGeometry>
        </mxCell>
        <mxCell id="CcFwGT3Hx2j7R2-zVpOx-20" value="" style="html=1;points=[];perimeter=orthogonalPerimeter;" parent="1" vertex="1">
          <mxGeometry x="220" y="260" width="10" height="20" as="geometry" />
        </mxCell>
        <mxCell id="CcFwGT3Hx2j7R2-zVpOx-21" value="&lt;div&gt;1.2 : Logout&lt;/div&gt;" style="html=1;verticalAlign=bottom;endArrow=open;dashed=1;endSize=8;rounded=0;exitX=-0.1;exitY=0.875;exitDx=0;exitDy=0;exitPerimeter=0;" parent="1" source="CcFwGT3Hx2j7R2-zVpOx-18" edge="1">
          <mxGeometry relative="1" as="geometry">
            <mxPoint x="310" y="260" as="sourcePoint" />
            <mxPoint x="230" y="260" as="targetPoint" />
          </mxGeometry>
        </mxCell>
        <mxCell id="CcFwGT3Hx2j7R2-zVpOx-22" value="Reimbursement" style="html=1;" parent="1" vertex="1">
          <mxGeometry x="562" y="65" width="110" height="50" as="geometry" />
        </mxCell>
        <mxCell id="CcFwGT3Hx2j7R2-zVpOx-23" value="" style="endArrow=none;dashed=1;html=1;rounded=0;entryX=0.5;entryY=1;entryDx=0;entryDy=0;startArrow=none;" parent="1" source="CcFwGT3Hx2j7R2-zVpOx-24" edge="1">
          <mxGeometry width="50" height="50" relative="1" as="geometry">
            <mxPoint x="616.5" y="440" as="sourcePoint" />
            <mxPoint x="616.5" y="115" as="targetPoint" />
          </mxGeometry>
        </mxCell>
        <mxCell id="CcFwGT3Hx2j7R2-zVpOx-24" value="" style="html=1;points=[];perimeter=orthogonalPerimeter;" parent="1" vertex="1">
          <mxGeometry x="612" y="200" width="10" height="70" as="geometry" />
        </mxCell>
        <mxCell id="CcFwGT3Hx2j7R2-zVpOx-25" value="" style="endArrow=none;dashed=1;html=1;rounded=0;entryX=0.5;entryY=1;entryDx=0;entryDy=0;startArrow=none;" parent="1" target="CcFwGT3Hx2j7R2-zVpOx-24" edge="1">
          <mxGeometry width="50" height="50" relative="1" as="geometry">
            <mxPoint x="617" y="330" as="sourcePoint" />
            <mxPoint x="564.5" y="115" as="targetPoint" />
          </mxGeometry>
        </mxCell>
        <mxCell id="CcFwGT3Hx2j7R2-zVpOx-26" value="&lt;div&gt;1.1.1 : View Reimbursement&lt;br&gt;&lt;/div&gt;" style="html=1;verticalAlign=bottom;endArrow=block;rounded=0;exitX=1.1;exitY=0.125;exitDx=0;exitDy=0;exitPerimeter=0;" parent="1" edge="1">
          <mxGeometry width="80" relative="1" as="geometry">
            <mxPoint x="401" y="204" as="sourcePoint" />
            <mxPoint x="609.9999999999998" y="204" as="targetPoint" />
          </mxGeometry>
        </mxCell>
        <mxCell id="CcFwGT3Hx2j7R2-zVpOx-30" value="" style="endArrow=none;dashed=1;html=1;rounded=0;entryX=0.5;entryY=1;entryDx=0;entryDy=0;" parent="1" edge="1">
          <mxGeometry width="50" height="50" relative="1" as="geometry">
            <mxPoint x="394.5" y="440" as="sourcePoint" />
            <mxPoint x="395" y="320" as="targetPoint" />
          </mxGeometry>
        </mxCell>
        <mxCell id="CcFwGT3Hx2j7R2-zVpOx-32" value="" style="endArrow=none;dashed=1;html=1;rounded=0;entryX=0.5;entryY=1;entryDx=0;entryDy=0;" parent="1" edge="1">
          <mxGeometry width="50" height="50" relative="1" as="geometry">
            <mxPoint x="616.5" y="440" as="sourcePoint" />
            <mxPoint x="617" y="330" as="targetPoint" />
          </mxGeometry>
        </mxCell>
        <mxCell id="CcFwGT3Hx2j7R2-zVpOx-34" value="Email Notification" style="html=1;" parent="1" vertex="1">
          <mxGeometry x="760" y="65" width="110" height="50" as="geometry" />
        </mxCell>
        <mxCell id="CcFwGT3Hx2j7R2-zVpOx-35" value="" style="endArrow=none;dashed=1;html=1;rounded=0;entryX=0.5;entryY=1;entryDx=0;entryDy=0;" parent="1" edge="1">
          <mxGeometry width="50" height="50" relative="1" as="geometry">
            <mxPoint x="814.6399999999999" y="440" as="sourcePoint" />
            <mxPoint x="814.6399999999999" y="115" as="targetPoint" />
          </mxGeometry>
        </mxCell>
        <mxCell id="CcFwGT3Hx2j7R2-zVpOx-36" value="" style="html=1;points=[];perimeter=orthogonalPerimeter;" parent="1" vertex="1">
          <mxGeometry x="810" y="350" width="10" height="20" as="geometry" />
        </mxCell>
        <mxCell id="CcFwGT3Hx2j7R2-zVpOx-38" value="3 : Notification" style="html=1;verticalAlign=bottom;endArrow=open;dashed=1;endSize=8;rounded=0;entryX=1;entryY=0.693;entryDx=0;entryDy=0;entryPerimeter=0;" parent="1" edge="1">
          <mxGeometry relative="1" as="geometry">
            <mxPoint x="809.9999999999998" y="365" as="sourcePoint" />
            <mxPoint x="100" y="365.03999999999996" as="targetPoint" />
          </mxGeometry>
        </mxCell>
        <mxCell id="mlnrsdU4IkYOfnHpXsJw-1" value="1.1.2 : Detail Reimburstment and Signature" style="html=1;verticalAlign=bottom;endArrow=open;dashed=1;endSize=8;rounded=0;entryX=1.205;entryY=0.746;entryDx=0;entryDy=0;entryPerimeter=0;" edge="1" parent="1">
          <mxGeometry relative="1" as="geometry">
            <mxPoint x="612" y="240" as="sourcePoint" />
            <mxPoint x="402.04999999999995" y="239.67999999999995" as="targetPoint" />
          </mxGeometry>
        </mxCell>
        <mxCell id="mlnrsdU4IkYOfnHpXsJw-2" value="1.1.3 : Approval Signature" style="html=1;verticalAlign=bottom;endArrow=block;rounded=0;" edge="1" parent="1">
          <mxGeometry width="80" relative="1" as="geometry">
            <mxPoint x="400" y="267" as="sourcePoint" />
            <mxPoint x="610" y="267" as="targetPoint" />
          </mxGeometry>
        </mxCell>
      </root>
    </mxGraphModel>
  </diagram>
</mxfile>
